<?xml version="1.0" encoding="UTF-8" standalone="no"?>
<svg
   xmlns:dc="http://purl.org/dc/elements/1.1/"
   xmlns:cc="http://creativecommons.org/ns#"
   xmlns:rdf="http://www.w3.org/1999/02/22-rdf-syntax-ns#"
   xmlns:svg="http://www.w3.org/2000/svg"
   xmlns="http://www.w3.org/2000/svg"
   enable-background="new 0 0 24 24"
   height="32"
   viewBox="0 0 22.4 22.4"
   width="32"
   fill="#000000"
   version="1.1"
   id="svg26">
  <metadata
     id="metadata32">
    <rdf:RDF>
      <cc:Work
         rdf:about="">
        <dc:format>image/svg+xml</dc:format>
        <dc:type
           rdf:resource="http://purl.org/dc/dcmitype/StillImage" />
        <dc:title></dc:title>
      </cc:Work>
    </rdf:RDF>
  </metadata>
  <defs
     id="defs30" />
  <g
     id="g24"
     transform="translate(-0.8,-0.8)">
    <g
       id="g22">
      <polygon
         opacity="0.3"
         points="17,14.87 17,10.24 13,12.57 13,17.17 "
         id="polygon6" />
      <polygon
         opacity="0.3"
         points="8.04,8.53 12,10.84 15.96,8.53 12,6.25 "
         id="polygon8" />
      <polygon
         opacity="0.3"
         points="11,17.17 11,12.57 7,10.24 7,14.87 "
         id="polygon10" />
      <path
         d="M 3,4 C 3,3.45 3.45,3 4,3 H 6 V 1 H 4 C 2.34,1 1,2.34 1,4 v 2 h 2 z"
         id="path12" />
      <path
         d="M 3,20 V 18 H 1 v 2 c 0,1.66 1.34,3 3,3 H 6 V 21 H 4 C 3.45,21 3,20.55 3,20 Z"
         id="path14" />
      <path
         d="m 20,1 h -2 v 2 h 2 c 0.55,0 1,0.45 1,1 v 2 h 2 V 4 C 23,2.34 21.66,1 20,1 Z"
         id="path16" />
      <path
         d="m 21,20 c 0,0.55 -0.45,1 -1,1 h -2 v 2 h 2 c 1.66,0 3,-1.34 3,-3 v -2 h -2 z"
         id="path18" />
      <path
         d="M 19,14.87 V 9.13 C 19,8.41 18.62,7.75 18,7.4 L 13,4.52 C 12.69,4.34 12.35,4.25 12,4.25 c -0.35,0 -0.69,0.09 -1,0.27 L 6,7.39 C 5.38,7.75 5,8.41 5,9.13 v 5.74 c 0,0.72 0.38,1.38 1,1.73 l 5,2.88 c 0.31,0.18 0.65,0.27 1,0.27 0.35,0 0.69,-0.09 1,-0.27 l 5,-2.88 c 0.62,-0.35 1,-1.01 1,-1.73 z m -8,2.3 -4,-2.3 v -4.63 l 4,2.33 z M 12,10.84 8.04,8.53 12,6.25 15.96,8.53 Z m 5,4.03 -4,2.3 v -4.6 l 4,-2.33 z"
         id="path20" />
    </g>
  </g>
</svg>
